<?xml version="1.0" encoding="utf-8"?>
<!-- Generator: Adobe Illustrator 19.0.0, SVG Export Plug-In . SVG Version: 6.00 Build 0)  -->
<svg version="1.1" id="Layer_1" xmlns="http://www.w3.org/2000/svg" xmlns:xlink="http://www.w3.org/1999/xlink" x="0px" y="0px"
	 width="300px" height="300px" viewBox="0 0 300 300" enable-background="new 0 0 300 300" xml:space="preserve">
<g id="XMLID_5_">
	<path id="XMLID_1_" fill="#FFFFFF" d="M5.984,4.466v126.141h20.574V23.69H131.45V4.466C131.45,4.466,6.658,5.14,5.984,4.466z"/>
	<path id="XMLID_7_" fill="#FFFFFF" d="M4.972,295.534V169.393h20.574V276.31h104.893v19.225
		C130.438,295.534,5.646,294.86,4.972,295.534z"/>
	<path id="XMLID_6_" fill="#FFFFFF" d="M295.028,4.803v126.141h-20.574V24.028H169.562V4.803
		C169.562,4.803,294.354,5.478,295.028,4.803z"/>
	<path id="XMLID_8_" fill="#FFFFFF" d="M294.691,294.522V168.382h-20.574v106.916H169.225v19.225
		C169.225,294.522,294.016,293.848,294.691,294.522z"/>
	<polygon id="XMLID_9_" fill="#FFFFFF" points="226.561,98.228 243.088,85.749 230.946,71.584 215.431,59.104 193.508,47.974 
		167.538,42.578 141.905,43.59 119.308,50.335 101.77,59.442 86.592,71.246 71.415,90.134 60.622,110.033 55.563,128.246 
		54.214,151.518 55.9,167.37 59.948,183.222 71.415,205.144 86.255,223.357 103.456,236.511 122.006,245.955 142.917,251.014 
		159.106,251.688 159.106,231.452 142.243,230.103 127.74,225.718 113.237,217.624 98.06,204.807 86.93,189.293 79.509,172.766 
		75.799,153.879 76.811,133.642 82.208,117.453 90.302,101.938 101.095,89.459 115.598,77.654 131.787,69.897 148.651,65.513 
		166.864,65.175 184.065,69.56 199.917,76.98 209.698,83.725 	"/>
</g>
</svg>
